/* XPM */
const char * Dots2_xpm[] = {
"100 100 55 1",
" 	c #FFFFFF",
".	c #FBEFFF",
"+	c #F2CFFF",
"@	c #E59FFF",
"#	c #DD80FF",
"$	c #D050FF",
"%	c #C320FF",
"&	c #BA00FF",
"*	c #F2EFFF",
"=	c #D9CFFF",
"-	c #B39FFF",
";	c #9B80FF",
">	c #C730FF",
",	c #7550FF",
"'	c #4F20FF",
")	c #3600FF",
"!	c #5C30FF",
"~	c #D7C2FF",
"{	c #E7C2FF",
"]	c #EEE0FF",
"^	c #B395FF",
"/	c #794BFF",
"(	c #CD81FF",
"_	c #622DFF",
":	c #B663FF",
"<	c #C52DFF",
"[	c #B481FF",
"}	c #CC4BFF",
"|	c #DD95FF",
"1	c #C11EFF",
"2	c #9728FF",
"3	c #8410FF",
"4	c #B610FF",
"5	c #6800FF",
"6	c #B028FF",
"7	c #4F00FF",
"8	c #561EFF",
"9	c #9D78FF",
"0	c #D678FF",
"a	c #D3A8FF",
"b	c #3E00FF",
"c	c #7714FF",
"d	c #B832FF",
"e	c #A100FF",
"f	c #9100FF",
"g	c #A900FF",
"h	c #7800FF",
"i	c #8F32FF",
"j	c #B914FF",
"k	c #A750FF",
"l	c #B418FF",
"m	c #980AFF",
"n	c #B10AFF",
"o	c #8B18FF",
"p	c #B650FF",
"                                                                                                    ",
"                                                                                                    ",
"                                                                                                    ",
"                                                                                                    ",
"                                                                                                    ",
"                                                                  .+@##@+.                          ",
"                                                                 .@$%&&%$@.      *=-;;-=*           ",
"                                                                .@>&&&&&&>@.    *-,'))',-*          ",
"                                                                +$&&&&&&&&$+   *-!))))))!-*         ",
"                           *=-;;-=*                *=-;;-=*     @%&&&&&&&&%@   =,)))))))),=         ",
"                          *-,'))',-*              *-,'))',-*    #&&&&&&&&&&#   -'))))))))'-         ",
"                         *-!))))))!-*            *-!))))))!-*   #&&&&&&&&&&#   ;))))))))));         ",
"                         =,)))))))),=            =,)))))))),=   @%&&&&&&&&%@   ;))))))))));         ",
"                         -'))))))))'-            -'))))))))'-   +$&&&&&&&&$+   -'))))))))'-         ",
"                         ;))))))))));            ;))))))))));   .@>&&&&&&>@.   =,)))))))),=         ",
"                         ;))))))))));            ;))))))))));    .@$%&&%$@.    *-!))))))!-*         ",
"                         -'))))))))'-            -'))))))))'-     .+@##@+.      *-,'))',-*          ",
"         *=-;;-=*        =,)))))))),=            =,)))))))),=                    *=-;;-=*           ",
"        *-,'))',-*       *-!))))))!-*   .+@##@+. *-!))))))!-*                                       ",
"       *-!))))))!-*       *-,'))',-*   .@$%&&%$@. *-,'))',-*                           .+@##@+.     ",
"       =,)))))))),=        *=-;;-=*   .@>&&&&&&>@. *=-;;-=*                           .@$%&&%$@.    ",
"       -'))))))))'-                   +$&&&&&&&&$+                                   .@>&&&&&&>@.   ",
"       ;))))))))));                   @%&&&&&&&&%@         *=-;;-=*                  +$&&&&&&&&$+   ",
"       ;)))))))))); .+@##@+.          #&&&&&&&&&&#        *-,'))',-*                 @%&&&&&&&&%@   ",
"       -'))))))))'-.@$%&&%$@.         #&&&&&&&&&&#       *-!))))))!-*                #&&&&&&&&&&#   ",
"       =,)))))))),~@>&&&&&&>@.        @%&&&&&&&&%@       =,)))))))),=                #&&&&&&&&&&#   ",
"       *-!))))))!-{$&&&&&&&&$+        +$&&&&&&&&$+       -'))))))))'-       *=-;;-=* @%&&&&&&&&%@   ",
"        *-,'))',-*@%&&&&&&&&%@        .@>&&&&&&>@.       ;))))))))));      *-,'))',-*+$&&&&&&&&$+   ",
"         *=-;;-=* #&&&&&&&&&&#         .@$%&&%$@.        ;))))))))));     *-!))))))!-]@>&&&&&&>@.   ",
"                  #&&&&&&&&&&#  *=-;;-=*.+@##@+.         -'))))))))'-     =,)))))))),=.@$%&&%$@.    ",
"                  @%&&&&&&&&%@ *-,'))',-*                =,)))))))),=     -'))))))))'- .+@##@+.     ",
"                  +$&&&&&&&&$+*-!))))))!-*               *-!))))))!-*     ;))))))))));              ",
"                  .@>&&&&&&>@.=,)))))))),=                *-,'))',-*      ;))))))))));              ",
"                   .@$%&&%$@. -'))))))))'-                 *=-;;-=*       -'))))))))'-              ",
"                    .+@##@+.  ;))))))))));                                =,)))))))),=              ",
"                              ;))))))))));                                *-!))))))!-*              ",
"             *=-;;-=*         -'))))))))'^+@##@+.                          *-,'))',-*               ",
"            *-,'))',-*        =,))))))))/($%&&%$@.                          *=-;;-=*                ",
"           *-!))))))!-*       *-!))))))_:<&&&&&&>@.*=-;;-=*                                         ",
"           =,)))))))),=        *-,'))',[}&&&&&&&&${-,'))',-*                                        ",
"           -'))))))))'-         *=-;;-=|%&&&&&&&&1:!))))))!-*                                       ",
"           ;))))))))));                #&&&&&&&&&&2)))))))),=                                       ",
"           ;))))))))));                #&&&&&&&&&&3))))))))'-     *=-;;-=*                          ",
"           -'))))))))'-                @%&&&&&&&&45)))))))));    *-,'))',-*        *=-;;-=*         ",
"           =,)))))))),= .+@##@+.       +$&&&&&&&&67)))))))));   *-!))))))!-*      *-,'))',-*        ",
"           *-!))))))!-*.@$%&&%$@.      .@>&&&&&&>:8))))))))'-   =,)))))))),=     *-!))))))!-*       ",
"            *-,'))',-*.@>&&&&&&>@.      .@$%&&%$@~,)))))))),=   -'))))))))'-     =,)))))))),=       ",
"             *=-;;-=* +$&&&&&&&&$+   *=-;9[(0#@+.*-!))))))!-*   ;))))))))));     -'))))))))'-       ",
"                      @%&&&&&&&&%@  *-,'))',-*    *-,'))',-*    ;))))))))));     ;))))))))));       ",
"                      #&&&&&&&&&&# *-!))))))!-*    *=-;;-=*     -'))))))))'-     ;))))))))));       ",
"                      #&&&&&&&&&&# =,)))))))),=                 =,)))))))),=     -'))))))))'-       ",
"                      @%&&&&&&&&%@ -'))))))))'-    *=-;;-=*     *-!))))))!-*     =,)))))))),=       ",
"                      +$&&&&&&&&$+ ;))))))))));   *-,'))',-*     *-,'))',-*      *-!))))))!-*       ",
"                      .@>&&&&&&>@. ;))))))))));  *-!))))))!-*     *=-;;-=*        *-,'))',-*        ",
"              *=-;;-=* .@$%&&%$@.  -'))))))))'-  =,))))))))/a@##@+.                *=-;;-=*         ",
"             *-,'))',-* .+@##@+.   =,)))))))),=  -')))))))bcd%&&%$@.                                ",
"            *-!))))))!-*           *-!))))))!-*  ;)))))))b5e&&&&&&>@.    *=-;;-=*                   ",
"            =,)))))))),=            *-,'))',-*   ;)))))))7f&&&&&&&&$+   *-,'))',-*                  ",
"            -'))))))))'-             *=-;;-=*    -'))))))5g&&&&&&&&%@  *-!))))))!-*                 ",
"            ;))))))))));     *=-;;-=*            =,))))))h&&&&&&&&&&#  =,)))))))),=     .+@##@+.    ",
"            ;))))))))));    *-,'))',-*           *-!)))))h&&&&&&&&&&#  -'))))))))'-    .@$%&&%$@.   ",
"            -'))))))))'-   *-!))))))!-*           *-,'))'ij&&&&&&&&%@  ;))))))))));   .@>&&&&&&>@.  ",
"            =,)))))))),=   =,)))))))),=            *=-;;-a}&&&&&&&&$+  ;))))))))));   +$&&&&&&&&$+  ",
"            *-!))))))!-*   -'))))))))'^+@##@+.           .@>&&&&&&>@.  -'))))))))'-   @%&&&&&&&&%@  ",
"             *-,'))',-*    ;)))))))))bk$%&&%$@.           .@$%&&%$@.   =,)))))))),=   #&&&&&&&&&&#  ",
"              *=-;;-=*     ;))))))))b5l&&&&&&>@.           .+@##@+.    *-!))))))!-*   #&&&&&&&&&&#  ",
"                           -')))))))7m&&&&&&&&$+   *=-;;-=*             *-,'))',-*    @%&&&&&&&&%@  ",
"                           =,)))))))5n&&&&&&&&%@  *-,'))',-*             *=-;;-=*     +$&&&&&&&&$+  ",
"                           *-!))))))o&&&&&&&&&&# *-!))))))!-*                         .@>&&&&&&>@.  ",
"                            *-,'))',p&&&&&&&&&&# =,)))))))),=    *=-;;-=*              .@$%&&%$@.   ",
"                             *=-;;-=|%&&&&&&&&%@ -'))))))))'-   *-,'))',-*              .+@##@+.    ",
"                                    +$&&&&&&&&$+ ;))))))))));  *-!))))))!-*                         ",
"          *=-;;-=*                  .@>&&&&&&>@. ;))))))))));  =,)))))))),=                         ",
"         *-,'))',-*        *=-;;-=*  .@$%&&%$@.  -'))))))))'-  -'))))))))'-                         ",
"        *-!))))))!-*      *-,'))',-*  .+@##@+.   =,)))))))),=  ;))))))))));                         ",
"        =,)))))))),=     *-!))))))!-*            *-!))))))!-*  ;))))))))));                         ",
"        -'))))))))'-     =,)))))))),=             *-,'))',-*   -'))))))))'-        *=-;;-=*         ",
"        ;))))))))));     -'))))))))'-              *=-;;-=*    =,)))))))),=       *-,'))',-*        ",
"        ;))))))))));     ;))))))))));                          *-!))))))!-*      *-!))))))!-*       ",
"        -'))))))))'-     ;))))))))));                           *-,'))',-*       =,)))))))),=       ",
"        =,)))))))),=     -'))))))))'-                            *=-;;-=*        -'))))))))'-       ",
"        *-!))))))!-*     =,)))))))),=                                            ;))))))))));       ",
"         *-,'))',-*      *-!))))))!-*     *=-;;-=*                               ;))))))))));       ",
"          *=-;;-=*        *-,'))',-*     *-,'))',-*                              -'))))))))'-       ",
"                .+@##@+.   *=-;;-=*     *-!))))))!-*              *=-;;-=*       =,)))))))),=       ",
"               .@$%&&%$@.               =,)))))))),=             *-,'))',-*      *-!))))))!-*       ",
"              .@>&&&&&&>@.              -'))))))))'-            *-!))))))!-*      *-,'))',-*        ",
"              +$&&&&&&&&$+              ;))))))))));            =,)))))))),=       *=-;;-=*         ",
"              @%&&&&&&&&%@              ;))))))))));            -'))))))))'-                        ",
"              #&&&&&&&&&&#              -'))))))))'-            ;))))))))));                        ",
"              #&&&&&&&&&&#              =,)))))))),=            ;))))))))));                        ",
"              @%&&&&&&&&%@              *-!))))))!-*            -'))))))))'-                        ",
"              +$&&&&&&&&$+               *-,'))',-*             =,)))))))),=                        ",
"              .@>&&&&&&>@.                *=-;;-=*              *-!))))))!-*                        ",
"               .@$%&&%$@.                                        *-,'))',-*                         ",
"                .+@##@+.                                          *=-;;-=*                          ",
"                                                                                                    ",
"                                                                                                    ",
"                                                                                                    ",
"                                                                                                    "};
