/* XPM */
static char * ScreenFont_xpm[] = {
"99 93 3 1",
" 	c #000000",
".	c #FFF600",
"+	c #FFFFFF",
"                                  .                                   .                            ",
"                                  .                                   .                            ",
"                                  .                                   .                            ",
"                                  .                                   .                            ",
"                                  .                                   .                            ",
"                                  .                                   .                            ",
"                                  .                                   .                            ",
"                                  .                                   .                            ",
"                                  .                                   .                            ",
"                +                 .                 +                 .                            ",
"               +++                .                +++                .         ++                 ",
"                +                 .                 +                 .         ++                 ",
"                                  .                                   .         ++                 ",
"                                  .                                   .         ++                 ",
"             +++++                .              +++++                .         ++      +          ",
"             +++++                .              +++++                .         ++     ++          ",
"                ++                .                 ++                .         ++    ++           ",
"                ++                .                 ++                .         ++   ++            ",
"                ++                .                 ++                .         ++  ++             ",
"                ++                .                 ++                .         ++ ++              ",
"                ++                .                 ++                .         ++++               ",
"                ++                .                 ++                .         +++                ",
"                ++                .                 ++                .         ++++               ",
"                ++                .                 ++                .         ++ ++              ",
"                ++                .                 ++                .         ++  ++             ",
"                ++                .                 ++                .         ++   ++            ",
"                ++                .            ++  +++                .         ++    ++           ",
"                ++                .             +++++                 .         ++     ++          ",
"                                  .              +++                  .         ++      ++         ",
"                                  .                                   .                            ",
"...................................................................................................",
"                                  .                                   .                            ",
"                                  .                                   .                            ",
"                                  .                                   .                            ",
"                                  .                                   .                            ",
"                                  .                                   .                            ",
"                                  .                                   .                            ",
"                                  .                                   .                            ",
"                                  .                                   .                            ",
"                                  .                                   .                            ",
"                                  .                                   .                            ",
"         ++++++++++               .          ++        ++             .         ++        ++       ",
"         +++++++++++              .          +++       ++             .         ++        ++       ",
"         ++       ++              .          ++++      ++             .         ++        ++       ",
"         ++       ++              .          ++ ++     ++             .         ++        ++       ",
"         ++       ++              .          ++  ++    ++             .         ++        ++       ",
"         ++       ++              .          ++   ++   ++             .         ++        ++       ",
"         ++       ++              .          ++    ++  ++             .         ++        ++       ",
"         +++++++++++              .          ++     ++ ++             .         ++++++++++++       ",
"         ++++++++++               .          ++      ++++             .         ++++++++++++       ",
"         +++                      .          ++       +++             .         ++        ++       ",
"         ++++                     .          ++        ++             .         ++        ++       ",
"         ++ ++                    .          ++        ++             .         ++        ++       ",
"         ++  ++                   .          ++        ++             .         ++        ++       ",
"         ++   ++                  .          ++        ++             .         ++        ++       ",
"         ++    ++                 .          ++        ++             .         ++        ++       ",
"         ++     ++                .          ++        ++             .         ++        ++       ",
"         ++      ++               .          ++        ++             .         ++        ++       ",
"         ++       ++              .          ++        ++             .         ++        ++       ",
"         ++        ++             .          ++        ++             .         ++        ++       ",
"                                  .                                   .                            ",
"...................................................................................................",
"                                  .                                   .                            ",
"                                  .                                   .                            ",
"                                  .                                   .                            ",
"                                  .                                   .                            ",
"                                  .                                   .                            ",
"                                  .                                   .                            ",
"                                  .                                   .                            ",
"                                  .                                   .                            ",
"                                  .                                   .                            ",
"                                  .                                   .                            ",
"         ++                       .                     ++            .           +++++++++        ",
"         ++                       .                     ++            .         ++++++++++++       ",
"         ++                       .                     ++            .         ++        ++       ",
"         ++                       .                     ++            .         ++        ++       ",
"         ++                       .                     ++            .                   ++       ",
"         ++                       .                     ++            .                   ++       ",
"         ++                       .                     ++            .                   ++       ",
"         ++ ++++++++              .            ++++++++ ++            .          ++++++++ ++       ",
"         ++++++++++++             .           ++++++++++++            .         ++++++++++++       ",
"         +++       +++            .          +++       +++            .        +++       +++       ",
"         ++         ++            .          ++         ++            .        ++         ++       ",
"         ++         ++            .          ++         ++            .        ++         ++       ",
"         ++         ++            .          ++         ++            .        ++         ++       ",
"         ++         ++            .          ++         ++            .        ++         ++       ",
"         ++         ++            .          ++         ++            .        ++         ++       ",
"         ++         ++            .          ++         ++            .        ++         ++       ",
"         +++       ++             .           ++       +++            .         ++       +++       ",
"         +++++++++++              .            +++++++++++            .          +++++++++++       ",
"          +++++++++               .             +++++++++             .           +++++++++        ",
"                                  .                                   .                            ",
".................................................................................................  "};
